<?xml version="1.0" encoding="utf-8"?>
<!-- Generator: Adobe Illustrator 26.0.0, SVG Export Plug-In . SVG Version: 6.00 Build 0)  -->
<svg version="1.1" id="Capa_1" xmlns="http://www.w3.org/2000/svg" xmlns:xlink="http://www.w3.org/1999/xlink" x="0px" y="0px"
	 viewBox="0 0 150 150" style="enable-background:new 0 0 150 150;" xml:space="preserve">
<style type="text/css">
	.st0{fill:#E6E6E6;stroke:#2AF1F5;stroke-width:0.5;stroke-miterlimit:10;}
</style>
<g>
	<g>
		<path class="st0" d="M43.6,59.02h-2.67v-20.5h-7.19v-2.34h17.02v2.34H43.6V59.02z"/>
		<path class="st0" d="M68.58,50.43c0,1.41-0.18,2.66-0.55,3.77c-0.36,1.1-0.89,2.04-1.58,2.8c-0.69,0.76-1.52,1.34-2.49,1.74
			c-0.97,0.4-2.08,0.6-3.3,0.6c-1.15,0-2.2-0.2-3.15-0.6s-1.78-0.98-2.47-1.74c-0.69-0.76-1.23-1.69-1.61-2.8
			c-0.38-1.1-0.57-2.36-0.57-3.77c0-1.88,0.32-3.47,0.95-4.79c0.64-1.32,1.54-2.32,2.73-3.02c1.18-0.69,2.59-1.04,4.23-1.04
			c1.56,0,2.93,0.35,4.1,1.05c1.17,0.7,2.08,1.71,2.73,3.02C68.26,46.97,68.58,48.56,68.58,50.43z M55.55,50.43
			c0,1.38,0.18,2.57,0.55,3.58c0.36,1.01,0.93,1.79,1.69,2.34c0.76,0.55,1.74,0.83,2.94,0.83c1.19,0,2.16-0.28,2.93-0.83
			c0.77-0.55,1.33-1.33,1.7-2.34c0.36-1.01,0.55-2.2,0.55-3.58c0-1.36-0.18-2.54-0.55-3.54c-0.36-0.99-0.93-1.76-1.69-2.3
			c-0.76-0.54-1.75-0.81-2.95-0.81c-1.78,0-3.09,0.59-3.91,1.77C55.97,46.71,55.55,48.34,55.55,50.43z"/>
		<path class="st0" d="M79.16,59.33c-2.17,0-3.88-0.74-5.15-2.22c-1.27-1.48-1.9-3.68-1.9-6.59c0-2.95,0.64-5.17,1.94-6.68
			c1.29-1.5,3.01-2.26,5.16-2.26c0.91,0,1.7,0.12,2.38,0.36c0.68,0.24,1.26,0.56,1.75,0.96c0.49,0.4,0.9,0.86,1.23,1.37h0.19
			c-0.04-0.32-0.08-0.77-0.12-1.33c-0.04-0.56-0.06-1.02-0.06-1.38v-6.86h2.59v24.31h-2.09l-0.39-2.44h-0.11
			c-0.32,0.51-0.73,0.97-1.23,1.39c-0.5,0.42-1.08,0.75-1.77,0.99C80.89,59.21,80.09,59.33,79.16,59.33z M79.57,57.18
			c1.83,0,3.13-0.52,3.89-1.56c0.76-1.04,1.14-2.59,1.14-4.64v-0.47c0-2.18-0.36-3.85-1.09-5.02c-0.72-1.17-2.04-1.75-3.95-1.75
			c-1.59,0-2.79,0.61-3.58,1.84c-0.79,1.22-1.19,2.89-1.19,5.01c0,2.1,0.39,3.73,1.18,4.88C76.77,56.6,77.96,57.18,79.57,57.18z"/>
		<path class="st0" d="M107.41,50.43c0,1.41-0.18,2.66-0.55,3.77c-0.37,1.1-0.89,2.04-1.58,2.8c-0.69,0.76-1.52,1.34-2.49,1.74
			c-0.97,0.4-2.08,0.6-3.3,0.6c-1.15,0-2.2-0.2-3.15-0.6s-1.78-0.98-2.47-1.74c-0.69-0.76-1.23-1.69-1.61-2.8
			c-0.38-1.1-0.57-2.36-0.57-3.77c0-1.88,0.32-3.47,0.95-4.79c0.63-1.32,1.54-2.32,2.73-3.02c1.18-0.69,2.59-1.04,4.23-1.04
			c1.56,0,2.93,0.35,4.1,1.05c1.17,0.7,2.08,1.71,2.73,3.02C107.09,46.97,107.41,48.56,107.41,50.43z M94.38,50.43
			c0,1.38,0.18,2.57,0.55,3.58c0.36,1.01,0.93,1.79,1.69,2.34c0.76,0.55,1.74,0.83,2.94,0.83c1.19,0,2.16-0.28,2.93-0.83
			c0.77-0.55,1.33-1.33,1.7-2.34c0.36-1.01,0.55-2.2,0.55-3.58c0-1.36-0.18-2.54-0.55-3.54c-0.37-0.99-0.93-1.76-1.69-2.3
			c-0.76-0.54-1.75-0.81-2.95-0.81c-1.78,0-3.09,0.59-3.91,1.77C94.79,46.71,94.38,48.34,94.38,50.43z"/>
		<path class="st0" d="M43.6,97.42h-2.67v-20.5h-7.19v-2.34h17.02v2.34H43.6V97.42z"/>
		<path class="st0" d="M60.41,79.98c1.46,0,2.71,0.32,3.75,0.97c1.04,0.65,1.84,1.55,2.39,2.71c0.55,1.16,0.83,2.52,0.83,4.07v1.61
			H55.55c0.03,2.01,0.53,3.54,1.5,4.59s2.33,1.58,4.09,1.58c1.08,0,2.04-0.1,2.88-0.3c0.83-0.2,1.7-0.49,2.59-0.88v2.28
			c-0.86,0.39-1.72,0.67-2.57,0.84c-0.85,0.18-1.85,0.27-3.01,0.27c-1.65,0-3.08-0.34-4.3-1.01c-1.22-0.67-2.17-1.66-2.85-2.96
			c-0.68-1.3-1.02-2.9-1.02-4.78c0-1.84,0.31-3.44,0.93-4.79c0.62-1.35,1.49-2.39,2.62-3.12C57.55,80.35,58.88,79.98,60.41,79.98z
			 M60.38,82.11c-1.39,0-2.49,0.45-3.31,1.36c-0.82,0.91-1.31,2.17-1.47,3.8h9.06c-0.01-1.02-0.17-1.92-0.48-2.7
			c-0.31-0.78-0.77-1.38-1.4-1.81S61.36,82.11,60.38,82.11z"/>
		<path class="st0" d="M74.4,97.42h-2.61V73.11h2.61V97.42z"/>
		<path class="st0" d="M86.27,80.01c2.04,0,3.56,0.46,4.55,1.38c0.99,0.92,1.48,2.38,1.48,4.39v11.64h-1.89l-0.5-2.53h-0.12
			c-0.48,0.62-0.98,1.15-1.5,1.57c-0.52,0.42-1.12,0.74-1.8,0.95c-0.68,0.21-1.52,0.32-2.51,0.32c-1.04,0-1.97-0.18-2.77-0.55
			c-0.81-0.36-1.44-0.92-1.91-1.66c-0.46-0.74-0.7-1.68-0.7-2.81c0-1.71,0.68-3.02,2.03-3.94c1.35-0.92,3.42-1.42,6.19-1.5
			l2.95-0.12v-1.05c0-1.48-0.32-2.52-0.95-3.11c-0.64-0.59-1.53-0.89-2.69-0.89c-0.9,0-1.75,0.13-2.56,0.39s-1.58,0.57-2.31,0.92
			l-0.8-1.97c0.77-0.4,1.66-0.73,2.66-1.02S85.17,80.01,86.27,80.01z M89.74,88.98l-2.61,0.11c-2.14,0.08-3.64,0.43-4.52,1.05
			s-1.31,1.48-1.31,2.61c0,0.98,0.3,1.7,0.89,2.17s1.38,0.7,2.36,0.7c1.52,0,2.77-0.42,3.73-1.27s1.45-2.11,1.45-3.8V88.98z"/>
		<path class="st0" d="M108.72,92.73c0,1.09-0.27,2.01-0.82,2.76s-1.33,1.3-2.34,1.68s-2.23,0.56-3.63,0.56
			c-1.2,0-2.23-0.09-3.11-0.28s-1.64-0.45-2.3-0.8v-2.39c0.7,0.34,1.53,0.66,2.5,0.94s1.96,0.42,2.97,0.42
			c1.48,0,2.55-0.24,3.22-0.72c0.67-0.48,1-1.13,1-1.95c0-0.47-0.13-0.88-0.4-1.24s-0.71-0.71-1.34-1.05s-1.49-0.71-2.59-1.12
			c-1.09-0.42-2.04-0.83-2.84-1.24s-1.41-0.91-1.84-1.51c-0.43-0.59-0.65-1.36-0.65-2.31c0-1.45,0.59-2.56,1.76-3.34
			s2.71-1.16,4.62-1.16c1.03,0,2,0.1,2.9,0.3c0.9,0.2,1.74,0.48,2.52,0.82l-0.88,2.08c-0.71-0.3-1.46-0.56-2.27-0.77
			c-0.8-0.21-1.62-0.31-2.45-0.31c-1.2,0-2.12,0.2-2.76,0.59s-0.96,0.94-0.96,1.62c0,0.53,0.15,0.97,0.45,1.31s0.77,0.67,1.43,0.97
			s1.52,0.66,2.59,1.06c1.07,0.4,2,0.8,2.78,1.23s1.38,0.93,1.8,1.53S108.72,91.8,108.72,92.73z"/>
		<path class="st0" d="M112.51,95.8c0-0.73,0.18-1.25,0.53-1.55c0.35-0.31,0.79-0.46,1.3-0.46c0.53,0,0.98,0.15,1.34,0.46
			c0.36,0.31,0.55,0.83,0.55,1.55c0,0.72-0.18,1.24-0.55,1.57c-0.37,0.33-0.81,0.49-1.34,0.49c-0.51,0-0.94-0.16-1.3-0.49
			C112.68,97.04,112.51,96.51,112.51,95.8z"/>
	</g>
</g>
<text transform="matrix(1 0 0 1 179.083 125.9482)" style="font-family:'ArialRoundedMTBold'; font-size:32px;">Lorem ipsum</text>
</svg>
